{"title":"18 year old virgin loses her cherry DvD Rip.wmv","uid":8641270,"size":275296052,"categoryP":"porn","categoryS":"movies","magnet":"?xt=urn:btih:c8ab93772f68fd8f8a9b4a6697c6d6b36c1bc89b&amp;dn=18+year+old+virgin+loses+her+cherry+DvD+Rip.wmv&amp;tr=udp%3A%2F%2Ftracker.openbittorrent.com%3A80&amp;tr=udp%3A%2F%2Fopen.demonii.com%3A1337&amp;tr=udp%3A%2F%2Ftracker.coppersurfer.tk%3A6969&amp;tr=udp%3A%2F%2Fexodus.desync.com%3A6969","seeders":6,"leechers":1,"uploader":"shilpa143","files":1,"time":1372883349,"description":"[b]18 year old virgin loses her cherry[/b]\n\n[code]General\nComplete name                            : 18 year old virgin loses her cherry DvD Rip\nFormat                                   : Windows Media\nFile size                                : 263 MiB\nDuration                                 : 24mn 0s\nOverall bit rate mode                    : Constant\nOverall bit rate                         : 1 528 Kbps\nMaximum Overall bit rate                 : 1 166 Kbps\nEncoded date                             : UTC 2013-07-03 16:17:25.251\n\nVideo\nID                                       : 2\nFormat                                   : VC-1\nFormat profile                           : Main\nCodec ID                                 : WMV3\nCodec ID/Info                            : Windows Media Video 9\nCodec ID/Hint                            : WMV3\nDuration                                 : 24mn 0s\nBit rate mode                            : Constant\nBit rate                                 : 392 Kbps\nWidth                                    : 720 pixels\nHeight                                   : 400 pixels\nDisplay aspect ratio                     : 16:9\nFrame rate                               : 29.970 fps\nBit depth                                : 8 bits\nScan type                                : Progressive\nCompression mode                         : Lossy\nBits/(Pixel*Frame)                       : 0.045\nStream size                              : 67.3 MiB (26%)\nLanguage                                 : English (US)\n\nAudio\nID                                       : 1\nFormat                                   : WMA\nFormat profile                           : Pro\nCodec ID                                 : 162\nCodec ID/Info                            : Windows Media Audio\nDescription of the codec                 : Windows Media Audio 10 Professional - 768 kbps, 96 kHz, 7.1 channel 24 bit 1-pass CBR\nDuration                                 : 24mn 0s\nBit rate mode                            : Constant\nBit rate                                 : 768 Kbps\nChannel(s)                               : 8 channels\nSampling rate                            : 96.0 KHz\nBit depth                                : 24 bits\nStream size                              : 132 MiB (50%)\nLanguage                                 : English (US)[/code]\n\n\n[img]http://i.cubeupload.com/eh1EHE.png[/img]\n\n[img]http://www.maxmirror.com/download/1MYAUD2X[/img]\n\n[img]http://i.cubeupload.com/ErwbCy.png[/img]","torrent":{"xt":"urn:btih:c8ab93772f68fd8f8a9b4a6697c6d6b36c1bc89b","amp;dn":"18+year+old+virgin+loses+her+cherry+DvD+Rip.wmv","amp;tr":["udp%3A%2F%2Ftracker.openbittorrent.com%3A80","udp%3A%2F%2Fopen.demonii.com%3A1337","udp%3A%2F%2Ftracker.coppersurfer.tk%3A6969","udp%3A%2F%2Fexodus.desync.com%3A6969"],"infoHash":"c8ab93772f68fd8f8a9b4a6697c6d6b36c1bc89b","infoHashBuffer":{"type":"Buffer","data":[200,171,147,119,47,104,253,143,138,155,74,102,151,198,214,179,108,27,200,155]},"announce":[],"urlList":[]}}